#!OML:ASF I:\Actors\actors\Patient Classification 2\Patient 1\Session 1\actor1.ASF
:FULLY-SPECIFIED
:DEGREES
596
root -0.639155 18.6327 6.42479 -2.64303 1.54286 -1.36758
lowerback 4.61312 -0.652432 5.42062
upperback -3.80728 -0.095361 6.03219
thorax -6.60081 -0.136831 3.30785
lowerneck -13.0924 -3.70992 0.330567
upperneck 24.7282 -4.52684 -3.25122
head 9.91645 -2.44498 -1.74915
rclavicle -1.15295e-014 1.59028e-015
rhumerus 0.485718 25.3858 -77.8769
rradius 80.2304
rwrist 16.9482
rhand -31.7355 -26.0688
rfingers 7.12502
rthumb -4.99336 -55.9899
lclavicle -1.15295e-014 1.59028e-015
lhumerus -14.7455 -47.7982 94.8344
lradius 102.463
lwrist -15.39
lhand -16.3068 -33.9542
lfingers 7.12502
lthumb 9.90419 -4.20716
rfemur 0 0 0
rtibia 0
rfoot 0 0
rtoes 0
lfemur -1.01868 -0.678027 -15.538
ltibia 24.9346
lfoot -22.0473 7.43331
ltoes -55.9078
597
root -0.643364 18.6337 6.41719 -2.56544 1.50991 -1.33756
lowerback 4.54818 -0.552551 5.16438
upperback -3.66316 0.00398125 6.09044
thorax -6.40946 -0.0725158 3.49637
lowerneck -12.8456 -3.70201 0.378581
upperneck 23.9388 -4.42259 -3.66649
head 9.57818 -2.44126 -1.86084
rclavicle 2.78299e-015 1.90833e-014
rhumerus 1.81596 24.4689 -77.4817
rradius 81.2515
rwrist 12.4728
rhand -30.6595 -26.2904
rfingers 7.12502
rthumb -3.95434 -56.2335
lclavicle 2.78299e-015 1.90833e-014
lhumerus -16.5858 -47.8271 95.6237
lradius 103.635
lwrist -13.8623
lhand -15.9406 -34.3616
lfingers 7.12502
lthumb 10.2575 -4.63176
rfemur 0 0 0
rtibia 0
rfoot 0 0
rtoes 0
lfemur -1.14307 -0.58534 -15.5584
ltibia 24.9402
lfoot -21.9626 7.51118
ltoes -56.2708
598
root -0.646541 18.6355 6.41097 -2.465 1.4897 -1.33849
lowerback 4.68257 -0.498838 5.38395
upperback -3.60251 0.0840209 5.81359
thorax -6.42245 -0.0502023 3.0717
lowerneck -12.6592 -3.60136 0.612907
upperneck 23.2852 -4.3277 -3.70638
head 9.30796 -2.38106 -1.88005
rclavicle 7.95139e-015 -5.08889e-014
rhumerus 2.84537 23.6574 -77.4811
rradius 82.8075
rwrist 8.02274
rhand -30.1053 -27.0941
rfingers 7.12502
rthumb -3.41914 -57.0464
lclavicle 7.95139e-015 -5.08889e-014
lhumerus -18.8015 -47.9679 96.0851
lradius 104.905
lwrist -12.5715
lhand -15.6511 -34.482
lfingers 7.12502
lthumb 10.5367 -4.76609
rfemur 0 0 0
rtibia 0
rfoot 0 0
rtoes 0
lfemur -1.28763 -0.538204 -15.5631
ltibia 24.9529
lfoot -21.8867 7.68281
ltoes -57.0047
599
root -0.649483 18.6371 6.4049 -2.43072 1.52054 -1.39504
lowerback 4.78681 -0.397203 5.26679
upperback -3.40859 0.203994 5.79075
thorax -6.27663 0.0158762 3.09639
lowerneck -12.6378 -3.59519 0.719351
upperneck 22.536 -4.29563 -3.91945
head 9.03602 -2.38082 -1.94635
rclavicle 1.98785e-015 9.70069e-014
rhumerus 4.08073 23.0841 -76.6863
rradius 84.8065
rwrist 3.63542
rhand -29.2387 -27.5769
rfingers 7.12502
rthumb -2.58226 -57.541
lclavicle 1.98785e-015 9.70069e-014
lhumerus -20.7555 -48.0056 96.8014
lradius 106.044
lwrist -11.537
lhand -15.406 -34.5039
lfingers 7.12502
lthumb 10.7731 -4.80019
rfemur 0 0 0
rtibia 0
rfoot 0 0
rtoes 0
lfemur -1.35862 -0.697758 -15.5217
ltibia 24.9725
lfoot -21.9303 7.84005
ltoes -56.7611
600
root -0.646169 18.6412 6.39195 -2.34948 1.41673 -1.47405
lowerback 5.03016 -0.28243 5.33738
upperback -3.31426 0.372964 5.69702
thorax -6.31769 0.0937568 2.94105
lowerneck -12.3669 -3.58868 0.930523
upperneck 21.6785 -4.26348 -4.25577
head 8.67784 -2.38352 -2.06144
rclavicle 2.36554e-014 -3.02153e-014
rhumerus 5.10392 22.6668 -75.9586
rradius 87.1377
rwrist -0.756534
rhand -28.1078 -27.9413
rfingers 7.12502
rthumb -1.49004 -57.9158
lclavicle 2.36554e-014 -3.02153e-014
lhumerus -22.9295 -47.7714 97.6535
lradius 106.919
lwrist -10.6281
lhand -15.2678 -34.4956
lfingers 7.12502
lthumb 10.9065 -4.79885
rfemur 0 0 0
rtibia 0
rfoot 0 0
rtoes 0
lfemur -1.48848 -0.974404 -15.5239
ltibia 24.9892
lfoot -22.0558 8.22146
ltoes -56.9989
601
root -0.626779 18.6521 6.36841 -2.03148 0.941441 -1.52039
lowerback 5.26572 -0.0669121 5.6307
upperback -3.36883 0.702424 5.54921
thorax -6.5114 0.236504 2.58971
lowerneck -11.3561 -3.45041 1.06767
upperneck 20.3841 -4.05391 -4.54364
head 8.05196 -2.29636 -2.09859
rclavicle 2.42517e-014 -3.33958e-014
rhumerus 5.9477 22.394 -75.3261
rradius 89.5346
rwrist -4.54173
rhand -27.9899 -29.1773
rfingers 7.12502
rthumb -1.3762 -59.1526
lclavicle 2.42517e-014 -3.33958e-014
lhumerus -25.4958 -47.1877 98.7392
lradius 107.744
lwrist -9.96276
lhand -15.3535 -34.7394
lfingers 7.12502
lthumb 10.8238 -5.03826
rfemur 0 0 0
rtibia 0
rfoot 0 0
rtoes 0
lfemur -1.85355 -1.36665 -15.7017
ltibia 25.0131
lfoot -22.3536 8.98686
ltoes -56.2212
602
root -0.62906 18.6547 6.3586 -1.97604 0.965416 -1.55323
lowerback 5.46648 -0.0421627 5.522
upperback -3.39856 0.746431 5.51191
thorax -6.65932 0.260045 2.6085
lowerneck -9.83354 -3.31058 1.09916
upperneck 18.8369 -3.83333 -4.85161
head 7.26714 -2.20262 -2.10842
rclavicle 2.18663e-015 2.70347e-014
rhumerus 6.75481 22.1981 -74.6746
rradius 91.8522
rwrist -7.51476
rhand -27.9571 -30.3275
rfingers 7.12502
rthumb -1.34448 -60.303
lclavicle 2.18663e-015 2.70347e-014
lhumerus -28.4201 -46.3449 100.075
lradius 108.599
lwrist -9.47118
lhand -14.9338 -35.0055
lfingers 7.12502
lthumb 11.2286 -5.32599
rfemur 0 0 0
rtibia 0
rfoot 0 0
rtoes 0
lfemur -1.95937 -1.51527 -15.6801
ltibia 25.0423
lfoot -22.4259 9.04149
ltoes -55.9076
603
root -0.632908 18.6586 6.34814 -1.92775 0.946309 -1.64683
lowerback 5.71087 0.0373492 5.49068
upperback -3.1981 0.850404 5.3984
thorax -6.58435 0.311713 2.49093
lowerneck -9.27224 -3.25056 1.45794
upperneck 17.4648 -3.75737 -5.31882
head 6.70816 -2.17111 -2.26598
rclavicle 7.7526e-015 2.38542e-014
rhumerus 8.12325 21.6793 -73.9336
rradius 94.0824
rwrist -9.92715
rhand -27.0436 -30.7505
rfingers 7.12502
rthumb -0.462167 -60.7298
lclavicle 7.7526e-015 2.38542e-014
lhumerus -30.5235 -45.7075 100.675
lradius 109.256
lwrist -9.15567
lhand -14.7493 -35.2386
lfingers 7.12502
lthumb 11.4065 -5.56886
rfemur 0 0 0
rtibia 0
rfoot 0 0
rtoes 0
lfemur -2.06298 -1.51998 -15.5661
ltibia 25.0578
lfoot -22.4019 9.1067
ltoes -56.0148
604
root -0.638213 18.6635 6.33662 -1.86565 0.868704 -1.78278
lowerback 5.96291 0.0954474 5.50499
upperback -3.09724 0.939543 5.30625
thorax -6.6201 0.35261 2.37434
lowerneck -8.15692 -3.16306 1.53538
upperneck 15.8394 -3.65006 -5.57314
head 5.99393 -2.11302 -2.28875
rclavicle 4.17448e-015 -1.74931e-014
rhumerus 9.18858 21.4872 -73.2923
rradius 96.3869
rwrist -12.0378
rhand -26.6517 -31.4991
rfingers 7.12502
rthumb -0.0837173 -61.4789
lclavicle 4.17448e-015 -1.74931e-014
lhumerus -32.8723 -44.7844 101.369
lradius 109.759
lwrist -9.32926
lhand -15.2347 -35.7431
lfingers 7.12502
lthumb 10.9384 -6.04806
rfemur 0 0 0
rtibia 0
rfoot 0 0
rtoes 0
lfemur -2.17472 -1.49548 -15.4026
ltibia 25.0582
lfoot -22.3207 9.2772
ltoes -56.4391
605
root -0.642596 18.6671 6.32434 -1.80638 0.762369 -1.84017
lowerback 6.27922 0.168746 5.41773
upperback -3.01796 1.04651 5.19778
thorax -6.71638 0.405349 2.29523
lowerneck -6.99537 -3.0864 1.47675
upperneck 14.2139 -3.57214 -5.6745
head 5.28839 -2.05902 -2.24593
rclavicle -1.86858e-014 8.5875e-014
rhumerus 9.98264 21.3949 -72.676
rradius 98.8487
rwrist -13.4311
rhand -26.3994 -32.7737
rfingers 7.12502
rthumb 0.160031 -62.7534
lclavicle -1.86858e-014 8.5875e-014
lhumerus -34.9823 -43.6337 101.945
lradius 110.129
lwrist -9.29822
lhand -15.4311 -36.2008
lfingers 7.12502
lthumb 10.7489 -6.49585
rfemur 0 0 0
rtibia 0
rfoot 0 0
rtoes 0
lfemur -2.28007 -1.48399 -15.3455
ltibia 25.0621
lfoot -22.2344 9.53317
ltoes -57.0637
606
root -0.64556 18.6704 6.31091 -1.76736 0.623443 -1.84713
lowerback 6.07306 0.231948 5.49378
upperback -2.53807 1.0631 4.90906
thorax -6.07734 0.415553 1.93634
lowerneck -6.05692 -3.01096 1.76108
upperneck 12.257 -3.55186 -5.7993
head 4.51896 -2.01313 -2.27221
rclavicle 6.36111e-015 1.74931e-014
rhumerus 11.3728 20.9517 -72.1262
rradius 101.084
rwrist -14.3283
rhand -25.6594 -33.2211
rfingers 7.12502
rthumb 0.874747 -63.1991
lclavicle 6.36111e-015 1.74931e-014
lhumerus -35.9153 -42.5685 101.488
lradius 110.36
lwrist -8.62391
lhand -14.9894 -36.5425
lfingers 7.12502
lthumb 11.175 -6.86013
rfemur 0 0 0
rtibia 0
rfoot 0 0
rtoes 0
lfemur -2.34333 -1.49825 -15.345
ltibia 25.0657
lfoot -22.2563 9.66884
ltoes -57.0456
607
root -0.648077 18.6757 6.29539 -1.69365 0.485113 -1.8783
lowerback 6.46808 0.335828 5.35231
upperback -2.45578 1.21288 4.79766
thorax -6.21499 0.490774 1.87929
lowerneck -4.84784 -2.97412 1.94387
upperneck 10.2041 -3.57945 -5.91287
head 4.07785 -1.9727 -2.5207
rclavicle 1.35174e-014 2.22639e-014
rhumerus 12.2201 20.7924 -71.4116
rradius 103.097
rwrist -15.2816
rhand -25.8673 -33.1588
rfingers 7.12502
rthumb 0.673959 -63.1374
lclavicle 1.35174e-014 2.22639e-014
lhumerus -37.7521 -41.343 101.936
lradius 110.594
lwrist -8.03994
lhand -14.4018 -36.8103
lfingers 7.12502
lthumb 11.7417 -7.15936
rfemur 0 0 0
rtibia 0
rfoot 0 0
rtoes 0
lfemur -2.43671 -1.62128 -15.3203
ltibia 25.0632
lfoot -22.3605 9.78664
ltoes -56.5124
